<svg width="48" height="48" viewBox="0 0 48 48" fill="none" xmlns="http://www.w3.org/2000/svg">
<rect width="48" height="48" rx="5" fill="#8B0284"/>
<mask id="path-2-outside-1_0_1" maskUnits="userSpaceOnUse" x="4.06459" y="4.69645" width="46.6091" height="38.4634" fill="black">
<rect fill="white" x="4.06459" y="4.69645" width="46.6091" height="38.4634"/>
<path d="M21.8153 20.881L21.7053 20.7879C21.8674 20.557 22.0821 20.3461 22.3492 20.1554C22.6131 19.9559 22.9065 19.7951 23.2295 19.673C23.7708 19.4684 24.2507 19.3917 24.6692 19.4431C25.0932 19.4824 25.4425 19.6147 25.7173 19.8401C26.0008 20.0623 26.2069 20.3435 26.3356 20.684C26.4577 21.0071 26.5013 21.3598 26.4662 21.7422C26.4312 22.1246 26.312 22.5089 26.1087 22.8951C25.9055 23.2812 25.6082 23.643 25.2169 23.9805C24.8256 24.318 24.3331 24.5989 23.7395 24.8233C22.7966 25.1797 21.9487 25.3256 21.1959 25.2609C20.4485 25.1842 19.8236 24.9565 19.3212 24.5776C18.8155 24.1901 18.4538 23.7082 18.236 23.132C18.0479 22.6343 17.9776 22.0921 18.0253 21.5054C18.0696 20.9099 18.2526 20.3119 18.5744 19.7113C18.8929 19.1021 19.371 18.5322 20.0086 18.0018C20.643 17.4627 21.4578 17.0051 22.4531 16.6289C23.1166 16.3781 23.8147 16.2189 24.5476 16.1515C25.2804 16.084 26.0286 16.0706 26.7923 16.1112C27.5614 16.1398 28.3344 16.1918 29.1113 16.2674C29.8882 16.3429 30.6585 16.401 31.4222 16.4416C32.1913 16.4701 32.9379 16.4523 33.662 16.3882C34.3948 16.3207 35.093 16.1616 35.7565 15.9108C36.4898 15.6336 37.0646 15.2667 37.4807 14.8101C37.8968 14.3535 38.0861 13.8778 38.0488 13.383L38.1978 13.3417C38.2429 13.8834 38.052 14.3946 37.625 14.8752C37.1981 15.3559 36.5873 15.7464 35.7929 16.0467C35.1294 16.2975 34.4449 16.4664 33.7394 16.5535C33.0394 16.6285 32.3229 16.6599 31.5898 16.6476C30.8568 16.6353 30.1145 16.6116 29.3628 16.5764C28.6166 16.5292 27.8682 16.5027 27.1178 16.4971C26.3673 16.4914 25.6175 16.5403 24.8684 16.6439C24.1247 16.7354 23.3905 16.9181 22.6659 17.192C21.854 17.4989 21.1351 17.8804 20.5093 18.3364C19.8921 18.7892 19.392 19.2875 19.0089 19.8315C18.6346 20.3721 18.3941 20.9369 18.2875 21.526C18.1863 22.1031 18.2413 22.671 18.4525 23.2297C18.6736 23.8146 19.0446 24.2681 19.5654 24.5901C20.0949 24.9088 20.7191 25.0819 21.438 25.1095C22.1536 25.1284 22.9086 24.9877 23.7031 24.6874C24.3491 24.4432 24.8895 24.1043 25.3242 23.6705C25.7677 23.2335 26.0723 22.7592 26.2381 22.2475C26.4006 21.7271 26.3895 21.2224 26.2047 20.7335C26.0001 20.1922 25.6316 19.8376 25.0991 19.6697C24.5634 19.4931 23.955 19.5334 23.2741 19.7908C22.951 19.9129 22.662 20.0721 22.4069 20.2683C22.1572 20.4525 21.96 20.6567 21.8153 20.881ZM21.8682 31.7119C22.5492 31.4545 23.1518 31.1219 23.6762 30.7142C24.2126 30.3119 24.6888 29.8426 25.1047 29.3062C25.5206 28.7698 25.8986 28.173 26.2388 27.5155C26.5844 26.8461 26.9119 26.1286 27.2212 25.3632C27.536 24.5856 27.8473 23.7595 28.1553 22.8848C28.472 22.0068 28.8077 21.0867 29.1624 20.1244C29.3326 19.651 29.5364 19.2397 29.7736 18.8906C30.0108 18.5415 30.2324 18.2433 30.4382 17.9959L31.1191 17.7385C30.9098 17.8974 30.6881 18.1159 30.454 18.394C30.2198 18.6721 29.9983 18.9703 29.7894 19.2888C29.5892 19.6039 29.4283 19.9042 29.3067 20.1896C29.0659 20.8195 28.8671 21.4683 28.7105 22.1362C28.5538 22.804 28.4048 23.479 28.2635 24.161C28.1309 24.8397 27.9715 25.5136 27.7854 26.1826C27.608 26.8483 27.365 27.4989 27.0564 28.1344C26.6012 29.0947 25.9578 29.9266 25.1261 30.6301C24.2978 31.3423 23.3598 31.8964 22.3121 32.2924C21.247 32.695 20.2911 32.8718 19.4444 32.8226C18.6097 32.7789 17.911 32.5541 17.3485 32.1481C16.7826 31.7334 16.3694 31.1812 16.1087 30.4915C15.9239 30.0026 15.8662 29.4806 15.9358 28.9254C16.0141 28.367 16.2093 27.8143 16.5214 27.2673C16.8422 26.717 17.2844 26.2106 17.8479 25.7481C18.4169 25.2737 19.0986 24.8863 19.8931 24.586C20.7138 24.2758 21.4229 24.1324 22.0205 24.156C22.6181 24.1796 23.1051 24.3198 23.4816 24.5766C23.858 24.8334 24.1221 25.1626 24.2739 25.5642C24.4026 25.9047 24.4413 26.2842 24.39 26.7027C24.3386 27.1212 24.1945 27.5449 23.9574 27.9738C23.7171 28.3939 23.3784 28.7913 22.9414 29.166C22.501 29.532 21.9534 29.8388 21.2986 30.0863C20.7399 30.2975 20.2639 30.3976 19.8706 30.3866C19.4773 30.3756 19.1652 30.289 18.9343 30.1269C18.7034 29.9647 18.545 29.7701 18.4592 29.5431C18.3503 29.255 18.3778 28.9054 18.5417 28.4942C18.7022 28.0743 19.0267 27.6524 19.5149 27.2283C19.9999 26.7956 20.6702 26.4175 21.5258 26.0941C22.2592 25.8169 22.9688 25.6485 23.6546 25.5888C24.3405 25.5291 24.9758 25.5733 25.5606 25.7214C26.1422 25.8608 26.6404 26.0966 27.0552 26.4287C27.4701 26.7608 27.7749 27.1844 27.9696 27.6995C28.1511 28.1796 28.2186 28.7278 28.1722 29.3441C28.129 29.969 27.9374 30.6102 27.5972 31.2676C27.257 31.925 26.7353 32.5512 26.0323 33.1462C25.338 33.738 24.4234 34.2483 23.2884 34.6773C22.1709 35.0997 21.089 35.339 20.0426 35.3953C19.005 35.4483 18.0417 35.3284 17.1529 35.0358C16.276 34.7486 15.514 34.3033 14.8668 33.6998C14.2109 33.0996 13.713 32.3499 13.3731 31.4506C13.0365 30.5601 12.9157 29.6729 13.0106 28.7889C13.0935 27.8995 13.3731 27.0554 13.8495 26.2567C14.3225 25.4493 14.9657 24.7223 15.7789 24.0756C16.5976 23.417 17.5613 22.8781 18.6701 22.459C19.1415 22.2808 19.6426 22.1413 20.1732 22.0405C20.7093 21.9277 21.2373 21.8728 21.7573 21.8758C22.2827 21.8668 22.7712 21.9316 23.2227 22.0702C23.6709 22.2001 24.056 22.4138 24.3779 22.7112L24.2618 22.8C23.9519 22.508 23.5788 22.2998 23.1427 22.1753C22.7065 22.0508 22.2361 21.9942 21.7314 22.0053C21.2234 22.0077 20.7102 22.062 20.1916 22.1683C19.6817 22.2712 19.191 22.4118 18.7196 22.59C17.6283 23.0025 16.6804 23.5304 15.8759 24.1737C15.0768 24.805 14.4418 25.514 13.9708 26.3007C13.5086 27.084 13.2328 27.9117 13.1433 28.7836C13.0505 29.6469 13.1708 30.5194 13.5041 31.4011C13.8341 32.2742 14.321 33.0081 14.9649 33.6029C15.6088 34.1976 16.3615 34.6315 17.223 34.9045C18.0878 35.1863 19.0286 35.2996 20.0455 35.2445C21.0744 35.1949 22.1389 34.9621 23.2389 34.5463C24.3564 34.1239 25.2536 33.6202 25.9304 33.0351C26.6193 32.4554 27.1311 31.8429 27.4659 31.1975C27.804 30.5608 27.9935 29.9404 28.0345 29.3362C28.0788 28.7408 28.0136 28.2117 27.8387 27.749C27.6539 27.26 27.3573 26.8583 26.949 26.5436C26.5462 26.217 26.0644 25.985 25.5036 25.8477C24.9429 25.7105 24.3256 25.6744 23.6517 25.7395C22.9866 25.8013 22.2918 25.9692 21.5671 26.2431C20.7378 26.5566 20.086 26.9177 19.6119 27.3264C19.1465 27.7318 18.8329 28.1297 18.6712 28.5201C18.5149 28.8985 18.4862 29.2186 18.5852 29.4805C18.6644 29.6901 18.8118 29.8688 19.0274 30.0168C19.243 30.1648 19.5327 30.2449 19.8965 30.2571C20.2657 30.2572 20.7166 30.1566 21.2491 29.9553C21.8777 29.7177 22.4051 29.4236 22.8313 29.0729C23.2542 28.7135 23.5831 28.3298 23.818 27.9217C24.0529 27.5136 24.195 27.1107 24.2442 26.7129C24.2988 26.3031 24.2651 25.9367 24.143 25.6137C24.0011 25.2383 23.7452 24.9309 23.3754 24.6916C23.0142 24.4489 22.5469 24.3212 21.9734 24.3085C21.3965 24.2871 20.7196 24.4232 19.9426 24.7169C19.1569 25.0139 18.4909 25.3903 17.9448 25.8462C17.3987 26.3021 16.968 26.7991 16.6526 27.3374C16.346 27.8724 16.1562 28.4131 16.0834 28.9595C16.0159 29.4938 16.068 29.988 16.2396 30.442C16.5036 31.1404 16.9189 31.632 17.4855 31.9167C18.0521 32.2014 18.7139 32.3155 19.4707 32.2589C20.2309 32.211 21.0301 32.0287 21.8682 31.7119Z"/>
</mask>
<path d="M21.8153 20.881L19.2314 23.9344L22.7079 26.8764L25.1766 23.0493L21.8153 20.881ZM21.7053 20.7879L18.4318 18.4891L16.3313 21.4802L19.1213 23.8413L21.7053 20.7879ZM22.3492 20.1554L24.6739 23.4105L24.7183 23.3788L24.7618 23.3459L22.3492 20.1554ZM24.6692 19.4431L24.1822 23.4133L24.241 23.4205L24.2999 23.426L24.6692 19.4431ZM25.7173 19.8401L23.1804 22.9327L23.2151 22.9612L23.2505 22.9889L25.7173 19.8401ZM26.1087 22.8951L29.6483 24.7583L29.6483 24.7583L26.1087 22.8951ZM25.2169 23.9805L22.6044 20.9515L22.6044 20.9515L25.2169 23.9805ZM21.1959 25.2609L20.7876 29.24L20.8205 29.2434L20.8536 29.2462L21.1959 25.2609ZM19.3212 24.5776L16.888 27.7524L16.9004 27.762L16.9129 27.7714L19.3212 24.5776ZM18.0253 21.5054L22.0121 21.829L22.0132 21.8157L22.0142 21.8023L18.0253 21.5054ZM18.5744 19.7113L22.1002 21.6004L22.1099 21.5824L22.1193 21.5643L18.5744 19.7113ZM20.0086 18.0018L22.5665 21.0771L22.5828 21.0635L22.5989 21.0498L20.0086 18.0018ZM24.5476 16.1515L24.1809 12.1683L24.1809 12.1683L24.5476 16.1515ZM26.7923 16.1112L26.5799 20.1056L26.6119 20.1073L26.6438 20.1084L26.7923 16.1112ZM29.1113 16.2674L28.7243 20.2486L28.7243 20.2486L29.1113 16.2674ZM31.4222 16.4416L31.2098 20.4359L31.2417 20.4376L31.2737 20.4388L31.4222 16.4416ZM33.662 16.3882L34.015 20.3726L34.0286 20.3713L33.662 16.3882ZM37.4807 14.8101L40.4372 17.5043L40.4372 17.5043L37.4807 14.8101ZM38.0488 13.383L36.9791 9.52871L33.8128 10.4075L34.0601 13.6841L38.0488 13.383ZM38.1978 13.3417L42.184 13.0097L41.7831 8.19545L37.1281 9.48736L38.1978 13.3417ZM37.625 14.8752L34.6344 12.2189L34.6344 12.2189L37.625 14.8752ZM33.7394 16.5535L34.1656 20.5307L34.1975 20.5273L34.2293 20.5234L33.7394 16.5535ZM31.5898 16.6476L31.6569 12.6481V12.6481L31.5898 16.6476ZM29.3628 16.5764L29.1103 20.5684L29.143 20.5705L29.1758 20.572L29.3628 16.5764ZM27.1178 16.4971L27.0875 20.4969L27.0875 20.4969L27.1178 16.4971ZM24.8684 16.6439L25.3569 20.6139L25.3865 20.6103L25.4161 20.6062L24.8684 16.6439ZM20.5093 18.3364L18.1535 15.1037L18.143 15.1114L20.5093 18.3364ZM19.0089 19.8315L15.7387 17.5281L15.7295 17.5411L15.7204 17.5542L19.0089 19.8315ZM18.2875 21.526L14.3514 20.8137L14.3495 20.8244L14.3476 20.8352L18.2875 21.526ZM19.5654 24.5901L17.462 27.9924L17.4824 28.005L17.5029 28.0173L19.5654 24.5901ZM21.438 25.1095L21.2845 29.1066L21.3085 29.1075L21.3325 29.1082L21.438 25.1095ZM25.3242 23.6705L22.5166 20.8215L22.5078 20.8301L22.4991 20.8388L25.3242 23.6705ZM26.2381 22.2475L30.0433 23.4805L30.0499 23.4602L30.0563 23.4397L26.2381 22.2475ZM25.0991 19.6697L23.8465 23.4685L23.8712 23.4767L23.896 23.4845L25.0991 19.6697ZM22.4069 20.2683L24.7814 23.4873L24.8137 23.4634L24.8455 23.439L22.4069 20.2683ZM23.6762 30.7142L21.2762 27.5142L21.2483 27.5351L21.2209 27.5565L23.6762 30.7142ZM25.1047 29.3062L21.9436 26.8551L21.9436 26.8551L25.1047 29.3062ZM26.2388 27.5155L29.7913 29.3539L29.793 29.3506L26.2388 27.5155ZM27.2212 25.3632L23.5135 23.8622L23.5126 23.8645L27.2212 25.3632ZM28.1553 22.8848L24.3926 21.5277L24.3874 21.5421L24.3823 21.5565L28.1553 22.8848ZM29.1624 20.1244L32.9155 21.5079L32.921 21.493L32.9264 21.4781L29.1624 20.1244ZM29.7736 18.8906L26.4652 16.6424L26.4652 16.6424L29.7736 18.8906ZM30.4382 17.9959L29.0239 14.2542L28.0374 14.6271L27.363 15.4378L30.4382 17.9959ZM31.1191 17.7385L33.5381 20.9242L29.7049 13.9968L31.1191 17.7385ZM30.454 18.394L27.3941 15.8177L27.3941 15.8177L30.454 18.394ZM29.7894 19.2888L26.4449 17.0946L26.4288 17.1192L26.413 17.144L29.7894 19.2888ZM29.3067 20.1896L25.6268 18.6219L25.5974 18.6908L25.5706 18.7609L29.3067 20.1896ZM28.2635 24.161L24.3467 23.3494L24.3421 23.3717L24.3377 23.3941L28.2635 24.161ZM27.7854 26.1826L23.9318 25.1104L23.9259 25.1315L23.9203 25.1526L27.7854 26.1826ZM27.0564 28.1344L23.4582 26.3872L23.45 26.4041L23.4419 26.4211L27.0564 28.1344ZM25.1261 30.6301L22.5428 27.5762L22.5306 27.5866L22.5183 27.5971L25.1261 30.6301ZM19.4444 32.8226L19.6761 28.8294L19.6648 28.8287L19.6535 28.8281L19.4444 32.8226ZM17.3485 32.1481L14.9839 35.3744L14.9957 35.383L15.0076 35.3916L17.3485 32.1481ZM15.9358 28.9254L11.9745 28.3701L11.9705 28.3991L11.9668 28.4281L15.9358 28.9254ZM16.5214 27.2673L13.0657 25.2527L13.0563 25.2689L13.047 25.2851L16.5214 27.2673ZM17.8479 25.7481L20.3854 28.8403L20.3976 28.8303L20.4097 28.8201L17.8479 25.7481ZM23.4816 24.5766L25.7358 21.2723L25.7358 21.2723L23.4816 24.5766ZM24.39 26.7027L20.4197 26.2157L20.4197 26.2157L24.39 26.7027ZM23.9574 27.9738L27.4295 29.9599L27.4441 29.9344L27.4583 29.9087L23.9574 27.9738ZM22.9414 29.166L25.4981 32.2422L25.5217 32.2226L25.545 32.2027L22.9414 29.166ZM19.8706 30.3866L19.7589 34.385V34.385L19.8706 30.3866ZM18.9343 30.1269L16.6355 33.4003L16.6355 33.4003L18.9343 30.1269ZM18.5417 28.4942L22.2574 29.9752L22.2678 29.9492L22.2778 29.923L18.5417 28.4942ZM19.5149 27.2283L22.1377 30.2485L22.158 30.2308L22.1781 30.2129L19.5149 27.2283ZM23.6546 25.5888L24.0014 29.5737L24.0014 29.5737L23.6546 25.5888ZM25.5606 25.7214L24.5785 29.599L24.6033 29.6053L24.6282 29.6112L25.5606 25.7214ZM27.0552 26.4287L29.5549 23.3059L29.5549 23.3059L27.0552 26.4287ZM28.1722 29.3441L24.1835 29.0434L24.1826 29.0559L24.1817 29.0685L28.1722 29.3441ZM27.5972 31.2676L31.1497 33.106V33.106L27.5972 31.2676ZM26.0323 33.1462L23.4482 30.093L23.4378 30.1018L26.0323 33.1462ZM20.0426 35.3953L20.2465 39.3901L20.2574 39.3895L20.0426 35.3953ZM17.1529 35.0358L18.4036 31.2364L18.3979 31.2345L17.1529 35.0358ZM14.8668 33.6998L17.5948 30.7743L17.581 30.7615L17.5671 30.7488L14.8668 33.6998ZM13.0106 28.7889L16.9877 29.2159L16.9907 29.188L16.9933 29.16L13.0106 28.7889ZM13.8495 26.2567L17.2848 28.3057L17.2928 28.2923L17.3007 28.2789L13.8495 26.2567ZM15.7789 24.0756L18.2684 27.2065L18.2774 27.1994L18.2864 27.1922L15.7789 24.0756ZM20.1732 22.0405L20.9197 25.9702L20.9584 25.9629L20.997 25.9548L20.1732 22.0405ZM21.7573 21.8758L21.7341 25.8757L21.78 25.876L21.8259 25.8752L21.7573 21.8758ZM23.2227 22.0702L22.0485 25.894L22.0788 25.9033L22.1091 25.9121L23.2227 22.0702ZM24.3779 22.7112L26.8077 25.8886L30.5854 22.9998L27.092 19.7729L24.3779 22.7112ZM24.2618 22.8L21.519 25.7115L23.9923 28.0415L26.6916 25.9774L24.2618 22.8ZM23.1427 22.1753L22.0449 26.0217L22.0449 26.0217L23.1427 22.1753ZM21.7314 22.0053L21.7505 26.0053L21.7851 26.0051L21.8198 26.0043L21.7314 22.0053ZM20.1916 22.1683L20.983 26.0892L20.9942 26.0869L20.1916 22.1683ZM15.8759 24.1737L18.3555 27.3124L18.3648 27.305L18.374 27.2977L15.8759 24.1737ZM13.9708 26.3007L10.5388 24.246L10.5323 24.257L10.5258 24.2679L13.9708 26.3007ZM13.1433 28.7836L17.1204 29.2111L17.1214 29.2015L17.1224 29.192L13.1433 28.7836ZM14.9649 33.6029L12.2507 36.5411L14.9649 33.6029ZM17.223 34.9045L18.4621 31.1013L18.4468 31.0963L18.4314 31.0914L17.223 34.9045ZM20.0455 35.2445L19.8527 31.2492L19.8409 31.2498L19.8291 31.2504L20.0455 35.2445ZM25.9304 33.0351L23.355 29.9745L23.3346 29.9916L23.3145 30.009L25.9304 33.0351ZM27.4659 31.1975L23.9331 29.3215L23.924 29.3386L23.9151 29.3557L27.4659 31.1975ZM28.0345 29.3362L24.0456 29.0393L24.0446 29.0523L24.0437 29.0653L28.0345 29.3362ZM26.949 26.5436L24.4297 29.6506L24.4682 29.6818L24.5074 29.712L26.949 26.5436ZM25.5036 25.8477L26.4547 21.9625V21.9625L25.5036 25.8477ZM23.6517 25.7395L24.0219 29.7224L24.0292 29.7217L24.0365 29.721L23.6517 25.7395ZM19.6119 27.3264L17.0002 24.2967L16.9923 24.3035L16.9845 24.3103L19.6119 27.3264ZM18.6712 28.5201L14.9758 26.9891L14.9742 26.9928L18.6712 28.5201ZM19.8965 30.2571L19.7629 34.2549L19.829 34.2571L19.8951 34.2571L19.8965 30.2571ZM22.8313 29.0729L25.3728 32.1617L25.3974 32.1415L25.4217 32.1209L22.8313 29.0729ZM23.818 27.9217L20.3513 25.9262L20.3513 25.9262L23.818 27.9217ZM24.2442 26.7129L20.2793 26.1843L20.2768 26.203L20.2744 26.2218L24.2442 26.7129ZM23.3754 24.6916L21.1444 28.0116L21.1731 28.0309L21.2021 28.0497L23.3754 24.6916ZM21.9734 24.3085L21.8249 28.3058L21.8548 28.3069L21.8848 28.3075L21.9734 24.3085ZM17.9448 25.8462L20.5082 28.9169L20.5082 28.9169L17.9448 25.8462ZM16.6526 27.3374L13.2014 25.3153L13.1918 25.3317L13.1823 25.3482L16.6526 27.3374ZM16.0834 28.9595L12.1185 28.4308L12.1166 28.4447L12.1148 28.4587L16.0834 28.9595ZM17.4855 31.9167L15.6895 35.4908L15.6895 35.4908L17.4855 31.9167ZM19.4707 32.2589L19.2194 28.2668L19.1959 28.2683L19.1725 28.27L19.4707 32.2589ZM21.8153 20.881L24.3992 17.8276L24.2892 17.7345L21.7053 20.7879L19.1213 23.8413L19.2314 23.9344L21.8153 20.881ZM21.7053 20.7879L24.9787 23.0867C24.8424 23.2809 24.7159 23.3805 24.6739 23.4105L22.3492 20.1554L20.0246 16.9002C19.4483 17.3118 18.8925 17.8331 18.4318 18.4891L21.7053 20.7879ZM22.3492 20.1554L24.7618 23.3459C24.7077 23.3868 24.6623 23.4076 24.6438 23.4146L23.2295 19.673L21.8152 15.9313C21.1506 16.1825 20.5184 16.5249 19.9366 16.9648L22.3492 20.1554ZM23.2295 19.673L24.6438 23.4146C24.7074 23.3906 24.6986 23.4004 24.6261 23.412C24.5514 23.4239 24.3962 23.4396 24.1822 23.4133L24.6692 19.4431L25.1563 15.4728C23.9005 15.3188 22.7482 15.5787 21.8152 15.9313L23.2295 19.673ZM24.6692 19.4431L24.2999 23.426C24.0888 23.4064 23.6367 23.307 23.1804 22.9327L25.7173 19.8401L28.2542 16.7476C27.2484 15.9225 26.0976 15.5584 25.0385 15.4602L24.6692 19.4431ZM25.7173 19.8401L23.2505 22.9889C22.9521 22.7552 22.7209 22.4339 22.594 22.0983L26.3356 20.684L30.0773 19.2698C29.693 18.2532 29.0495 17.3693 28.1841 16.6914L25.7173 19.8401ZM26.3356 20.684L22.594 22.0983C22.4787 21.7933 22.4689 21.5301 22.4829 21.3772L26.4662 21.7422L30.4495 22.1073C30.5336 21.1895 30.4368 20.2208 30.0773 19.2698L26.3356 20.684ZM26.4662 21.7422L22.4829 21.3772C22.502 21.1693 22.5607 21.048 22.5692 21.0319L26.1087 22.8951L29.6483 24.7583C30.0633 23.9699 30.3604 23.08 30.4495 22.1073L26.4662 21.7422ZM26.1087 22.8951L22.5692 21.0319C22.6379 20.9013 22.6848 20.8821 22.6044 20.9515L25.2169 23.9805L27.8294 27.0095C28.5315 26.4039 29.173 25.6611 29.6483 24.7583L26.1087 22.8951ZM25.2169 23.9805L22.6044 20.9515C22.6383 20.9223 22.5774 20.9864 22.3252 21.0817L23.7395 24.8233L25.1538 28.565C26.0889 28.2115 27.013 27.7137 27.8294 27.0095L25.2169 23.9805ZM23.7395 24.8233L22.3252 21.0817C21.764 21.2938 21.5301 21.2749 21.5382 21.2756L21.1959 25.2609L20.8536 29.2462C22.3673 29.3763 23.8292 29.0656 25.1538 28.565L23.7395 24.8233ZM21.1959 25.2609L21.6042 21.2818C21.5173 21.2729 21.5018 21.2618 21.5365 21.2744C21.575 21.2885 21.6468 21.3215 21.7295 21.3839L19.3212 24.5776L16.9129 27.7714C18.102 28.668 19.4562 29.1034 20.7876 29.24L21.1959 25.2609ZM19.3212 24.5776L21.7544 21.4028C21.7743 21.418 21.8194 21.4573 21.8696 21.5241C21.9203 21.5917 21.9561 21.6607 21.9776 21.7177L18.236 23.132L14.4943 24.5462C14.9851 25.8445 15.812 26.9278 16.888 27.7524L19.3212 24.5776ZM18.236 23.132L21.9776 21.7177C21.9963 21.7672 22.0054 21.81 22.0091 21.8382C22.0126 21.8651 22.0093 21.8644 22.0121 21.829L18.0253 21.5054L14.0384 21.1818C13.948 22.2953 14.0754 23.4379 14.4943 24.5462L18.236 23.132ZM18.0253 21.5054L22.0142 21.8023C22.0133 21.8147 22.012 21.8092 22.0206 21.781C22.0296 21.7516 22.0513 21.6917 22.1002 21.6004L18.5744 19.7113L15.0486 17.8223C14.5 18.8461 14.1276 19.9824 14.0363 21.2085L18.0253 21.5054ZM18.5744 19.7113L22.1193 21.5643C22.1479 21.5098 22.2534 21.3375 22.5665 21.0771L20.0086 18.0018L17.4507 14.9266C16.4885 15.7269 15.6379 16.6944 15.0295 17.8584L18.5744 19.7113ZM20.0086 18.0018L22.5989 21.0498C22.8021 20.8772 23.1874 20.6275 23.8673 20.3705L22.4531 16.6289L21.0388 12.8872C19.7282 13.3826 18.4839 14.0483 17.4183 14.9539L20.0086 18.0018ZM22.4531 16.6289L23.8673 20.3705C24.1817 20.2517 24.5264 20.1703 24.9142 20.1346L24.5476 16.1515L24.1809 12.1683C23.1031 12.2675 22.0515 12.5045 21.0388 12.8872L22.4531 16.6289ZM24.5476 16.1515L24.9142 20.1346C25.4472 20.0856 26.0018 20.0748 26.5799 20.1056L26.7923 16.1112L27.0047 12.1168C26.0555 12.0664 25.1136 12.0825 24.1809 12.1683L24.5476 16.1515ZM26.7923 16.1112L26.6438 20.1084C27.3321 20.134 28.0256 20.1807 28.7243 20.2486L29.1113 16.2674L29.4984 12.2861C28.6433 12.203 27.7907 12.1455 26.9408 12.114L26.7923 16.1112ZM29.1113 16.2674L28.7243 20.2486C29.5581 20.3297 30.3866 20.3921 31.2098 20.4359L31.4222 16.4416L31.6346 12.4472C30.9304 12.4098 30.2183 12.3561 29.4984 12.2861L29.1113 16.2674ZM31.4222 16.4416L31.2737 20.4388C32.2003 20.4732 33.1148 20.4523 34.015 20.3726L33.662 16.3882L33.3089 12.4038C32.761 12.4523 32.1822 12.467 31.5707 12.4443L31.4222 16.4416ZM33.662 16.3882L34.0286 20.3713C35.1064 20.2721 36.158 20.0352 37.1708 19.6524L35.7565 15.9108L34.3422 12.1692C34.0279 12.288 33.6831 12.3693 33.2953 12.405L33.662 16.3882ZM35.7565 15.9108L37.1708 19.6524C38.3392 19.2108 39.498 18.535 40.4372 17.5043L37.4807 14.8101L34.5241 12.1159C34.6311 11.9984 34.6405 12.0564 34.3422 12.1692L35.7565 15.9108ZM37.4807 14.8101L40.4372 17.5043C41.4009 16.4468 42.1771 14.9322 42.0374 13.082L38.0488 13.383L34.0601 13.6841C34.0315 13.3053 34.0956 12.94 34.2184 12.6313C34.3344 12.34 34.473 12.172 34.5241 12.1159L37.4807 14.8101ZM38.0488 13.383L39.1185 17.2373L39.2675 17.196L38.1978 13.3417L37.1281 9.48736L36.9791 9.52871L38.0488 13.383ZM38.1978 13.3417L34.2116 13.6736C34.185 13.3544 34.2312 13.0265 34.3413 12.7318C34.4461 12.451 34.5776 12.2828 34.6344 12.2189L37.625 14.8752L40.6156 17.5316C41.6253 16.3949 42.3364 14.8403 42.184 13.0097L38.1978 13.3417ZM37.625 14.8752L34.6344 12.2189C34.6942 12.1515 34.7261 12.1368 34.692 12.1586C34.6557 12.1818 34.5597 12.2366 34.3786 12.3051L35.7929 16.0467L37.2072 19.7883C38.42 19.3299 39.6431 18.6265 40.6156 17.5316L37.625 14.8752ZM35.7929 16.0467L34.3786 12.3051C34.0136 12.443 33.6395 12.5355 33.2495 12.5836L33.7394 16.5535L34.2293 20.5234C35.2502 20.3974 36.2451 20.152 37.2072 19.7883L35.7929 16.0467ZM33.7394 16.5535L33.3132 12.5763C32.7836 12.633 32.2319 12.6578 31.6569 12.6481L31.5898 16.6476L31.5228 20.647C32.4138 20.662 33.2952 20.624 34.1656 20.5307L33.7394 16.5535ZM31.5898 16.6476L31.6569 12.6481C30.9649 12.6365 30.2626 12.6141 29.5498 12.5808L29.3628 16.5764L29.1758 20.572C29.9664 20.609 30.7488 20.6341 31.5228 20.647L31.5898 16.6476ZM29.3628 16.5764L29.6154 12.5844C28.7949 12.5325 27.9724 12.5034 27.1481 12.4972L27.1178 16.4971L27.0875 20.4969C27.7641 20.5021 28.4383 20.5259 29.1103 20.5684L29.3628 16.5764ZM27.1178 16.4971L27.1481 12.4972C26.2028 12.49 25.2598 12.5517 24.3207 12.6815L24.8684 16.6439L25.4161 20.6062C25.9751 20.5289 26.5318 20.4927 27.0875 20.4969L27.1178 16.4971ZM24.8684 16.6439L24.3798 12.6738C23.309 12.8056 22.2645 13.0675 21.2516 13.4504L22.6659 17.192L24.0802 20.9336C24.5166 20.7687 24.9404 20.6652 25.3569 20.6139L24.8684 16.6439ZM22.6659 17.192L21.2516 13.4504C20.1443 13.8689 19.1014 14.4129 18.1535 15.1037L20.5093 18.3364L22.865 21.5691C23.1687 21.3478 23.5636 21.1289 24.0802 20.9336L22.6659 17.192ZM20.5093 18.3364L18.143 15.1114C17.2283 15.7825 16.4056 16.5813 15.7387 17.5281L19.0089 19.8315L22.2792 22.1348C22.3785 21.9938 22.556 21.7959 22.8755 21.5615L20.5093 18.3364ZM19.0089 19.8315L15.7204 17.5542C15.0533 18.5176 14.5694 19.6094 14.3514 20.8137L18.2875 21.526L22.2235 22.2383C22.2224 22.2447 22.2217 22.2425 22.2281 22.2275C22.2349 22.2115 22.2537 22.1718 22.2974 22.1087L19.0089 19.8315ZM18.2875 21.526L14.3476 20.8352C14.12 22.1335 14.2512 23.4279 14.7109 24.644L18.4525 23.2297L22.1941 21.8154C22.2077 21.8513 22.2261 21.9149 22.2342 21.999C22.2424 22.0837 22.2374 22.1596 22.2274 22.2168L18.2875 21.526ZM18.4525 23.2297L14.7109 24.644C15.2367 26.0352 16.1738 27.196 17.462 27.9924L19.5654 24.5901L21.6688 21.1878C21.768 21.2491 21.8851 21.3444 21.9926 21.4758C22.0994 21.6064 22.1618 21.73 22.1941 21.8154L18.4525 23.2297ZM19.5654 24.5901L17.5029 28.0173C18.6989 28.7371 20.0027 29.0574 21.2845 29.1066L21.438 25.1095L21.5916 21.1125C21.5082 21.1093 21.4826 21.0997 21.4999 21.1045C21.5084 21.1069 21.5254 21.1122 21.5489 21.1222C21.5725 21.1323 21.5994 21.1457 21.6279 21.1629L19.5654 24.5901ZM21.438 25.1095L21.3325 29.1082C22.6536 29.143 23.9265 28.8792 25.1173 28.4291L23.7031 24.6874L22.2888 20.9458C21.8907 21.0963 21.6535 21.1138 21.5435 21.1109L21.438 25.1095ZM23.7031 24.6874L25.1173 28.4291C26.2266 28.0098 27.2668 27.3828 28.1494 26.5022L25.3242 23.6705L22.4991 20.8388C22.5015 20.8365 22.4941 20.8447 22.4674 20.8615C22.4396 20.8789 22.3839 20.9098 22.2888 20.9458L23.7031 24.6874ZM25.3242 23.6705L28.1319 26.5196C28.9605 25.703 29.6505 24.6929 30.0433 23.4805L26.2381 22.2475L22.4329 21.0145C22.461 20.9279 22.4951 20.8637 22.5196 20.8255C22.5429 20.7892 22.5491 20.7895 22.5166 20.8215L25.3242 23.6705ZM26.2381 22.2475L30.0563 23.4397C30.4728 22.1059 30.4614 20.682 29.9463 19.3193L26.2047 20.7335L22.463 22.1478C22.4009 21.9833 22.3574 21.7841 22.3526 21.5671C22.3479 21.3521 22.3822 21.1761 22.4199 21.0553L26.2381 22.2475ZM26.2047 20.7335L29.9463 19.3193C29.3266 17.6797 28.0528 16.4071 26.3023 15.855L25.0991 19.6697L23.896 23.4845C23.6287 23.4002 23.3013 23.2325 23.0013 22.9439C22.7049 22.6587 22.5429 22.359 22.463 22.1478L26.2047 20.7335ZM25.0991 19.6697L26.3518 15.8709C24.7212 15.3332 23.1448 15.5635 21.8598 16.0492L23.2741 19.7908L24.6883 23.5325C24.7293 23.517 24.6627 23.5483 24.5059 23.5587C24.3384 23.5698 24.1056 23.554 23.8465 23.4685L25.0991 19.6697ZM23.2741 19.7908L21.8598 16.0492C21.1959 16.3001 20.5568 16.6449 19.9683 17.0976L22.4069 20.2683L24.8455 23.439C24.7671 23.4992 24.7062 23.5257 24.6883 23.5325L23.2741 19.7908ZM22.4069 20.2683L20.0324 17.0493C19.4551 17.4752 18.9002 18.021 18.454 18.7127L21.8153 20.881L25.1766 23.0493C25.0198 23.2924 24.8593 23.4297 24.7814 23.4873L22.4069 20.2683ZM21.8682 31.7119L23.2825 35.4535C24.3021 35.0681 25.2626 34.5476 26.1316 33.8719L23.6762 30.7142L21.2209 27.5565C21.0411 27.6962 20.7963 27.8409 20.4539 27.9703L21.8682 31.7119ZM23.6762 30.7142L26.0762 33.9142C26.9022 33.2947 27.6335 32.5727 28.2657 31.7573L25.1047 29.3062L21.9436 26.8551C21.7441 27.1125 21.5231 27.329 21.2762 27.5142L23.6762 30.7142ZM25.1047 29.3062L28.2657 31.7573C28.8431 31.0126 29.3494 30.2078 29.7913 29.3539L26.2388 27.5155L22.6863 25.6772C22.4477 26.1381 22.198 26.5271 21.9436 26.8551L25.1047 29.3062ZM26.2388 27.5155L29.793 29.3506C30.2004 28.5616 30.5786 27.731 30.9299 26.8618L27.2212 25.3632L23.5126 23.8645C23.2452 24.5263 22.9685 25.1306 22.6845 25.6805L26.2388 27.5155ZM27.2212 25.3632L30.9289 26.8641C31.269 26.024 31.602 25.1399 31.9283 24.2131L28.1553 22.8848L24.3823 21.5565C24.0927 22.3791 23.8029 23.1473 23.5135 23.8622L27.2212 25.3632ZM28.1553 22.8848L31.918 24.242C32.2313 23.3735 32.5637 22.4622 32.9155 21.5079L29.1624 20.1244L25.4092 18.741C25.0516 19.7111 24.7127 20.6401 24.3926 21.5277L28.1553 22.8848ZM29.1624 20.1244L32.9264 21.4781C33.004 21.2623 33.0656 21.163 33.082 21.1389L29.7736 18.8906L26.4652 16.6424C26.0071 17.3165 25.6613 18.0397 25.3984 18.7708L29.1624 20.1244ZM29.7736 18.8906L33.082 21.1389C33.2675 20.8659 33.411 20.6769 33.5133 20.5539L30.4382 17.9959L27.363 15.4378C27.0537 15.8097 26.7542 16.2172 26.4652 16.6424L29.7736 18.8906ZM30.4382 17.9959L31.8524 21.7375L32.5334 21.4801L31.1191 17.7385L29.7049 13.9968L29.0239 14.2542L30.4382 17.9959ZM31.1191 17.7385L28.7002 14.5528C28.1851 14.9439 27.7519 15.3927 27.3941 15.8177L30.454 18.394L33.5138 20.9703C33.5639 20.9108 33.594 20.8799 33.6035 20.8706C33.6078 20.8664 33.605 20.8694 33.595 20.8782C33.585 20.8869 33.5661 20.9029 33.5381 20.9242L31.1191 17.7385ZM30.454 18.394L27.3941 15.8177C27.0529 16.223 26.7369 16.6495 26.4449 17.0946L29.7894 19.2888L33.1339 21.4829C33.2597 21.2911 33.3868 21.1212 33.5138 20.9703L30.454 18.394ZM29.7894 19.2888L26.413 17.144C26.1187 17.6073 25.8488 18.1007 25.6268 18.6219L29.3067 20.1896L32.9867 21.7574C33.0079 21.7076 33.0597 21.6005 33.1658 21.4335L29.7894 19.2888ZM29.3067 20.1896L25.5706 18.7609C25.2644 19.5616 25.0132 20.3828 24.8162 21.2227L28.7105 22.1362L32.6048 23.0496C32.721 22.5539 32.8673 22.0773 33.0429 21.6184L29.3067 20.1896ZM28.7105 22.1362L24.8162 21.2227C24.6514 21.925 24.495 22.6339 24.3467 23.3494L28.2635 24.161L32.1803 24.9726C32.3147 24.3241 32.4562 23.6831 32.6048 23.0496L28.7105 22.1362ZM28.2635 24.161L24.3377 23.3941C24.2253 23.9697 24.09 24.5417 23.9318 25.1104L27.7854 26.1826L31.639 27.2548C31.8531 26.4854 32.0366 25.7097 32.1893 24.9279L28.2635 24.161ZM27.7854 26.1826L23.9203 25.1526C23.8104 25.5651 23.6579 25.9759 23.4582 26.3872L27.0564 28.1344L30.6547 29.8816C31.0721 29.022 31.4056 28.1316 31.6505 27.2126L27.7854 26.1826ZM27.0564 28.1344L23.4419 26.4211C23.2372 26.8531 22.9503 27.2315 22.5428 27.5762L25.1261 30.6301L27.7094 33.6841C28.9653 32.6218 29.9653 31.3364 30.6709 29.8477L27.0564 28.1344ZM25.1261 30.6301L22.5183 27.5971C22.0525 27.9976 21.5206 28.3154 20.8979 28.5508L22.3121 32.2924L23.7264 36.0341C25.199 35.4775 26.5431 34.687 27.734 33.6632L25.1261 30.6301ZM22.3121 32.2924L20.8979 28.5508C20.1874 28.8193 19.8056 28.8369 19.6761 28.8294L19.4444 32.8226L19.2127 36.8159C20.7766 36.9067 22.3066 36.5707 23.7264 36.0341L22.3121 32.2924ZM19.4444 32.8226L19.6535 28.8281C19.5347 28.8219 19.498 28.8065 19.5198 28.8136C19.5309 28.8171 19.5539 28.8255 19.5853 28.8412C19.617 28.8571 19.6526 28.8781 19.6893 28.9046L17.3485 32.1481L15.0076 35.3916C16.3114 36.3325 17.7914 36.7416 19.2352 36.8172L19.4444 32.8226ZM17.3485 32.1481L19.7131 28.9219C19.7434 28.9441 19.7824 28.9805 19.8166 29.0262C19.8499 29.0707 19.8571 29.0951 19.8503 29.0772L16.1087 30.4915L12.367 31.9058C12.8869 33.2812 13.7606 34.4778 14.9839 35.3744L17.3485 32.1481ZM16.1087 30.4915L19.8503 29.0772C19.8772 29.1483 19.8949 29.2234 19.9027 29.2944C19.9104 29.3642 19.9064 29.4097 19.9048 29.4227L15.9358 28.9254L11.9668 28.4281C11.8222 29.5827 11.9359 30.7651 12.367 31.9058L16.1087 30.4915ZM15.9358 28.9254L19.8971 29.4808C19.8972 29.4799 19.9056 29.4074 19.9957 29.2495L16.5214 27.2673L13.047 25.2851C12.513 26.2212 12.131 27.2541 11.9745 28.3701L15.9358 28.9254ZM16.5214 27.2673L19.977 29.2819C20.0263 29.1973 20.1371 29.044 20.3854 28.8403L17.8479 25.7481L15.3105 22.656C14.4316 23.3772 13.658 24.2367 13.0657 25.2527L16.5214 27.2673ZM17.8479 25.7481L20.4097 28.8201C20.5901 28.6697 20.87 28.4929 21.3074 28.3276L19.8931 24.586L18.4788 20.8443C17.3273 21.2796 16.2437 21.8776 15.2861 22.6762L17.8479 25.7481ZM19.8931 24.586L21.3074 28.3276C21.5565 28.2334 21.729 28.1875 21.8328 28.1665C21.9377 28.1454 21.9409 28.156 21.8629 28.1529L22.0205 24.156L22.1781 20.1591C20.8556 20.107 19.5869 20.4255 18.4788 20.8443L19.8931 24.586ZM22.0205 24.156L21.8629 28.1529C21.9399 28.1559 21.6366 28.1601 21.2273 27.8809L23.4816 24.5766L25.7358 21.2723C24.5736 20.4794 23.2963 20.2032 22.1781 20.1591L22.0205 24.156ZM23.4816 24.5766L21.2273 27.8809C21.1149 27.8042 20.9763 27.6866 20.842 27.5193C20.7064 27.3502 20.6025 27.1642 20.5323 26.9785L24.2739 25.5642L28.0156 24.1499C27.5553 22.9322 26.7462 21.9615 25.7358 21.2723L23.4816 24.5766ZM24.2739 25.5642L20.5323 26.9785C20.3981 26.6235 20.4048 26.3378 20.4197 26.2157L24.39 26.7027L28.3602 27.1898C28.4779 26.2306 28.4072 25.1859 28.0156 24.1499L24.2739 25.5642ZM24.39 26.7027L20.4197 26.2157C20.44 26.0506 20.4855 25.9865 20.4566 26.0388L23.9574 27.9738L27.4583 29.9087C27.9034 29.1034 28.2373 28.1919 28.3602 27.1898L24.39 26.7027ZM23.9574 27.9738L20.4854 25.9876C20.5108 25.9432 20.4915 25.9975 20.3378 26.1294L22.9414 29.166L25.545 32.2027C26.2653 31.585 26.9234 30.8446 27.4295 29.9599L23.9574 27.9738ZM22.9414 29.166L20.3846 26.0898C20.3518 26.1171 20.2131 26.2204 19.8844 26.3446L21.2986 30.0863L22.7129 33.8279C23.6937 33.4572 24.6502 32.9469 25.4981 32.2422L22.9414 29.166ZM21.2986 30.0863L19.8844 26.3446C19.822 26.3682 19.7751 26.3837 19.7427 26.3934C19.7102 26.4032 19.6962 26.4061 19.6994 26.4054C19.7024 26.4047 19.7278 26.3995 19.7731 26.3949C19.8185 26.3902 19.8894 26.3856 19.9823 26.3882L19.8706 30.3866L19.7589 34.385C20.8703 34.4161 21.8944 34.1373 22.7129 33.8279L21.2986 30.0863ZM19.8706 30.3866L19.9823 26.3882C20.0753 26.3908 20.6149 26.4193 21.2331 26.8534L18.9343 30.1269L16.6355 33.4003C17.7155 34.1588 18.8793 34.3605 19.7589 34.385L19.8706 30.3866ZM18.9343 30.1269L21.2331 26.8534C21.5489 27.0752 21.959 27.4891 22.2008 28.1289L18.4592 29.5431L14.7176 30.9574C15.131 32.0511 15.8578 32.8542 16.6355 33.4003L18.9343 30.1269ZM18.4592 29.5431L22.2008 28.1289C22.5731 29.1136 22.3031 29.8606 22.2574 29.9752L18.5417 28.4942L14.8259 27.0133C14.4525 27.9502 14.1275 29.3964 14.7176 30.9574L18.4592 29.5431ZM18.5417 28.4942L22.2778 29.923C22.1969 30.1344 22.1084 30.2594 22.0765 30.3009C22.0455 30.3412 22.0539 30.3212 22.1377 30.2485L19.5149 27.2283L16.8922 24.2082C16.1111 24.8865 15.2812 25.8216 14.8055 27.0655L18.5417 28.4942ZM19.5149 27.2283L22.1781 30.2129C22.1717 30.2186 22.2171 30.1772 22.3466 30.1042C22.4756 30.0314 22.6679 29.9386 22.9401 29.8357L21.5258 26.0941L20.1115 22.3525C18.9695 22.7842 17.8194 23.3804 16.8518 24.2438L19.5149 27.2283ZM21.5258 26.0941L22.9401 29.8357C23.3771 29.6706 23.7274 29.5976 24.0014 29.5737L23.6546 25.5888L23.3078 21.6038C22.2101 21.6994 21.1413 21.9632 20.1115 22.3525L21.5258 26.0941ZM23.6546 25.5888L24.0014 29.5737C24.3035 29.5474 24.484 29.5751 24.5785 29.599L25.5606 25.7214L26.5428 21.8439C25.4676 21.5715 24.3775 21.5107 23.3078 21.6038L23.6546 25.5888ZM25.5606 25.7214L24.6282 29.6112C24.6732 29.622 24.6798 29.628 24.6595 29.6184C24.6379 29.6082 24.5999 29.5869 24.5556 29.5515L27.0552 26.4287L29.5549 23.3059C28.6259 22.5623 27.575 22.091 26.4931 21.8316L25.5606 25.7214ZM27.0552 26.4287L24.5556 29.5515C24.4847 29.4947 24.4118 29.4202 24.3481 29.3317C24.285 29.2439 24.2477 29.1658 24.228 29.1137L27.9696 27.6995L31.7112 26.2852C31.2727 25.125 30.5502 24.1026 29.5549 23.3059L27.0552 26.4287ZM27.9696 27.6995L24.228 29.1137C24.1978 29.0339 24.1887 28.9782 24.1864 28.9597C24.1843 28.9431 24.1892 28.9679 24.1835 29.0434L28.1722 29.3441L32.1609 29.6447C32.2424 28.5626 32.1372 27.4121 31.7112 26.2852L27.9696 27.6995ZM28.1722 29.3441L24.1817 29.0685C24.1817 29.0685 24.1816 29.0699 24.1812 29.0727C24.1809 29.0756 24.1802 29.0801 24.179 29.0864C24.1767 29.0988 24.1722 29.1192 24.1636 29.148C24.1464 29.2058 24.112 29.2992 24.0446 29.4293L27.5972 31.2676L31.1497 33.106C31.6962 32.0499 32.0757 30.8798 32.1627 29.6196L28.1722 29.3441ZM27.5972 31.2676L24.0446 29.4293C23.9956 29.5239 23.8464 29.756 23.4482 30.093L26.0323 33.1462L28.6164 36.1995C29.6243 35.3465 30.5183 34.3261 31.1497 33.106L27.5972 31.2676ZM26.0323 33.1462L23.4378 30.1018C23.1881 30.3146 22.712 30.619 21.8741 30.9357L23.2884 34.6773L24.7027 38.4189C26.1347 37.8777 27.4879 37.1613 28.6268 36.1907L26.0323 33.1462ZM23.2884 34.6773L21.8741 30.9357C21.0882 31.2327 20.4109 31.3697 19.8278 31.4011L20.0426 35.3953L20.2574 39.3895C21.7671 39.3083 23.2536 38.9667 24.7027 38.4189L23.2884 34.6773ZM20.0426 35.3953L19.8387 31.4005C19.2397 31.4311 18.7749 31.3586 18.4036 31.2364L17.1529 35.0358L15.9021 38.8352C17.3086 39.2982 18.7703 39.4654 20.2465 39.3901L20.0426 35.3953ZM17.1529 35.0358L18.3979 31.2345C18.0489 31.1202 17.7989 30.9647 17.5948 30.7743L14.8668 33.6998L12.1389 36.6252C13.2291 37.6419 14.5031 38.377 15.9078 38.8371L17.1529 35.0358ZM14.8668 33.6998L17.5671 30.7488C17.411 30.6059 17.2512 30.3975 17.1147 30.0364L13.3731 31.4506L9.63147 32.8649C10.1748 34.3023 11.0108 35.5933 12.1665 36.6508L14.8668 33.6998ZM13.3731 31.4506L17.1147 30.0364C16.9839 29.6901 16.9645 29.4325 16.9877 29.2159L13.0106 28.7889L9.03343 28.3619C8.86686 29.9133 9.08915 31.4301 9.63147 32.8649L13.3731 31.4506ZM13.0106 28.7889L16.9933 29.16C17.0186 28.8882 17.1007 28.6145 17.2848 28.3057L13.8495 26.2567L10.4141 24.2077C9.6455 25.4964 9.16826 26.9107 9.02783 28.4178L13.0106 28.7889ZM13.8495 26.2567L17.3007 28.2789C17.4983 27.9416 17.7989 27.5798 18.2684 27.2065L15.7789 24.0756L13.2894 20.9448C12.1325 21.8647 11.1468 22.957 10.3982 24.2346L13.8495 26.2567ZM15.7789 24.0756L18.2864 27.1922C18.7368 26.8298 19.3208 26.4893 20.0844 26.2006L18.6701 22.459L17.2558 18.7174C15.8018 19.2669 14.4584 20.0042 13.2715 20.9591L15.7789 24.0756ZM18.6701 22.459L20.0844 26.2006C20.3242 26.11 20.6005 26.0309 20.9197 25.9702L20.1732 22.0405L19.4267 18.1108C18.6846 18.2517 17.9588 18.4516 17.2558 18.7174L18.6701 22.459ZM20.1732 22.0405L20.997 25.9548C21.2694 25.8974 21.5135 25.8744 21.7341 25.8757L21.7573 21.8758L21.7804 17.8759C20.9611 17.8711 20.1491 17.958 19.3494 18.1263L20.1732 22.0405ZM21.7573 21.8758L21.8259 25.8752C21.9773 25.8726 22.042 25.892 22.0485 25.894L23.2227 22.0702L24.3968 18.2464C23.5003 17.9712 22.588 17.8609 21.6886 17.8764L21.7573 21.8758ZM23.2227 22.0702L22.1091 25.9121C22.0626 25.8986 21.9915 25.8725 21.9071 25.8256C21.8217 25.7783 21.7385 25.7185 21.6638 25.6494L24.3779 22.7112L27.092 19.7729C26.2846 19.027 25.3413 18.5197 24.3362 18.2283L23.2227 22.0702ZM24.3779 22.7112L21.9481 19.5337L21.832 19.6225L24.2618 22.8L26.6916 25.9774L26.8077 25.8886L24.3779 22.7112ZM24.2618 22.8L27.0046 19.8884C26.1987 19.1292 25.2505 18.6172 24.2404 18.3289L23.1427 22.1753L22.0449 26.0217C21.9846 26.0045 21.899 25.9728 21.8001 25.9176C21.7003 25.8619 21.6044 25.7919 21.519 25.7115L24.2618 22.8ZM23.1427 22.1753L24.2404 18.3289C23.378 18.0828 22.5038 17.9873 21.643 18.0063L21.7314 22.0053L21.8198 26.0043C21.9683 26.001 22.035 26.0189 22.0449 26.0217L23.1427 22.1753ZM21.7314 22.0053L21.7123 18.0053C20.9303 18.0091 20.1546 18.0928 19.3889 18.2496L20.1916 22.1683L20.9942 26.0869C21.2658 26.0313 21.5166 26.0064 21.7505 26.0053L21.7314 22.0053ZM20.1916 22.1683L19.4001 18.2474C18.6849 18.3917 17.9855 18.5912 17.3053 18.8483L18.7196 22.59L20.1339 26.3316C20.3965 26.2323 20.6785 26.1507 20.983 26.0892L20.1916 22.1683ZM18.7196 22.59L17.3053 18.8483C15.8737 19.3894 14.5491 20.113 13.3777 21.0497L15.8759 24.1737L18.374 27.2977C18.8116 26.9477 19.3828 26.6155 20.1339 26.3316L18.7196 22.59ZM15.8759 24.1737L13.3962 21.0351C12.2586 21.9338 11.285 22.9997 10.5388 24.246L13.9708 26.3007L17.4028 28.3553C17.5986 28.0283 17.895 27.6762 18.3555 27.3124L15.8759 24.1737ZM13.9708 26.3007L10.5258 24.2679C9.7819 25.5287 9.31476 26.9079 9.16418 28.3753L13.1433 28.7836L17.1224 29.192C17.1508 28.9154 17.2353 28.6393 17.4158 28.3334L13.9708 26.3007ZM13.1433 28.7836L9.16619 28.3562C9.00072 29.8957 9.22669 31.398 9.76243 32.8154L13.5041 31.4011L17.2457 29.9869C17.1148 29.6407 17.1003 29.398 17.1204 29.2111L13.1433 28.7836ZM13.5041 31.4011L9.76243 32.8154C10.2974 34.2308 11.1214 35.4979 12.2507 36.5411L14.9649 33.6029L17.679 30.6646C17.5206 30.5183 17.3707 30.3176 17.2457 29.9869L13.5041 31.4011ZM14.9649 33.6029L12.2507 36.5411C13.3398 37.5471 14.6109 38.2728 16.0145 38.7176L17.223 34.9045L18.4314 31.0914C18.1121 30.9902 17.8778 30.8482 17.679 30.6646L14.9649 33.6029ZM17.223 34.9045L15.9839 38.7078C17.3707 39.1596 18.8109 39.3173 20.2619 39.2387L20.0455 35.2445L19.8291 31.2504C19.2463 31.282 18.8048 31.213 18.4621 31.1013L17.223 34.9045ZM20.0455 35.2445L20.2383 39.2399C21.7396 39.1674 23.2163 38.8311 24.6532 38.288L23.2389 34.5463L21.8246 30.8047C21.0615 31.0932 20.4092 31.2223 19.8527 31.2492L20.0455 35.2445ZM23.2389 34.5463L24.6532 38.288C26.0718 37.7518 27.4171 37.0373 28.5463 36.0611L25.9304 33.0351L23.3145 30.009C23.09 30.2031 22.6411 30.4961 21.8246 30.8047L23.2389 34.5463ZM25.9304 33.0351L28.5058 36.0957C29.5039 35.2558 30.3897 34.2478 31.0166 33.0393L27.4659 31.1975L23.9151 29.3557C23.8725 29.4379 23.7347 29.655 23.355 29.9745L25.9304 33.0351ZM27.4659 31.1975L30.9987 33.0735C31.5511 32.0331 31.9397 30.8691 32.0253 29.6072L28.0345 29.3362L24.0437 29.0653C24.0473 29.0118 24.0568 29.0886 23.9331 29.3215L27.4659 31.1975ZM28.0345 29.3362L32.0235 29.6331C32.1023 28.5745 31.9996 27.4441 31.5803 26.3347L27.8387 27.749L24.097 29.1632C24.0635 29.0745 24.0523 29.0099 24.0489 28.9827C24.0458 28.9573 24.0505 28.9731 24.0456 29.0393L28.0345 29.3362ZM27.8387 27.749L31.5803 26.3347C31.1371 25.1621 30.3952 24.1494 29.3907 23.3753L26.949 26.5436L24.5074 29.712C24.4266 29.6497 24.3389 29.5641 24.2593 29.4563C24.18 29.3489 24.1281 29.2456 24.097 29.1632L27.8387 27.749ZM26.949 26.5436L29.4684 23.4367C28.5571 22.6978 27.5238 22.2242 26.4547 21.9625L25.5036 25.8477L24.5525 29.733C24.5838 29.7407 24.5793 29.7427 24.5504 29.7287C24.5202 29.7142 24.4769 29.6888 24.4297 29.6506L26.949 26.5436ZM25.5036 25.8477L26.4547 21.9625C25.3892 21.7016 24.3128 21.657 23.267 21.7581L23.6517 25.7395L24.0365 29.721C24.3384 29.6918 24.4966 29.7193 24.5525 29.733L25.5036 25.8477ZM23.6517 25.7395L23.2815 21.7567C22.2076 21.8565 21.1609 22.1204 20.1529 22.5015L21.5671 26.2431L22.9814 29.9847C23.4226 29.818 23.7657 29.7462 24.0219 29.7224L23.6517 25.7395ZM21.5671 26.2431L20.1529 22.5015C19.0534 22.9171 17.9429 23.484 17.0002 24.2967L19.6119 27.3264L22.2235 30.3561C22.2181 30.3608 22.2649 30.3199 22.3948 30.2479C22.5239 30.1764 22.7143 30.0857 22.9814 29.9847L21.5671 26.2431ZM19.6119 27.3264L16.9845 24.3103C16.2516 24.9487 15.4575 25.8263 14.9758 26.9891L18.6712 28.5201L22.3666 30.0511C22.2825 30.2541 22.1961 30.3708 22.1694 30.4047C22.1428 30.4384 22.1554 30.4156 22.2392 30.3425L19.6119 27.3264ZM18.6712 28.5201L14.9742 26.9928C14.6072 27.8813 14.2492 29.3224 14.8436 30.8948L18.5852 29.4805L22.3268 28.0663C22.7232 29.1148 22.4225 29.9156 22.3681 30.0474L18.6712 28.5201ZM18.5852 29.4805L14.8436 30.8948C15.2575 31.99 15.9905 32.7839 16.7635 33.3145L19.0274 30.0168L21.2913 26.7191C21.6331 26.9538 22.0713 27.3901 22.3268 28.0663L18.5852 29.4805ZM19.0274 30.0168L16.7635 33.3145C17.8089 34.0322 18.9239 34.2268 19.7629 34.2549L19.8965 30.2571L20.0301 26.2593C20.1414 26.263 20.677 26.2975 21.2913 26.7191L19.0274 30.0168ZM19.8965 30.2571L19.8951 34.2571C20.9366 34.2574 21.8971 33.9866 22.6634 33.697L21.2491 29.9553L19.8349 26.2137C19.7727 26.2372 19.7251 26.2531 19.6912 26.2635C19.6745 26.2687 19.6618 26.2722 19.6532 26.2745C19.6445 26.2768 19.6404 26.2778 19.6406 26.2777C19.6409 26.2777 19.6461 26.2765 19.6561 26.2747C19.6661 26.273 19.6816 26.2705 19.7024 26.268C19.7429 26.263 19.8093 26.2571 19.8978 26.2571L19.8965 30.2571ZM21.2491 29.9553L22.6634 33.697C23.615 33.3373 24.5448 32.843 25.3728 32.1617L22.8313 29.0729L20.2899 25.9841C20.2655 26.0042 20.1404 26.0982 19.8349 26.2137L21.2491 29.9553ZM22.8313 29.0729L25.4217 32.1209C26.1338 31.5156 26.7835 30.788 27.2848 29.9171L23.818 27.9217L20.3513 25.9262C20.3828 25.8716 20.3746 25.9114 20.241 26.0249L22.8313 29.0729ZM23.818 27.9217L27.2848 29.9171C27.7401 29.126 28.0887 28.2161 28.2139 27.2041L24.2442 26.7129L20.2744 26.2218C20.3012 26.0053 20.3657 25.9012 20.3513 25.9262L23.818 27.9217ZM24.2442 26.7129L28.2091 27.2416C28.334 26.3045 28.2828 25.2528 27.8846 24.1994L24.143 25.6137L20.4014 27.028C20.2474 26.6207 20.2636 26.3018 20.2793 26.1843L24.2442 26.7129ZM24.143 25.6137L27.8846 24.1994C27.4111 22.9468 26.5615 21.989 25.5486 21.3334L23.3754 24.6916L21.2021 28.0497C21.0822 27.9721 20.9255 27.8471 20.7704 27.6607C20.6128 27.4714 20.4871 27.2549 20.4014 27.028L24.143 25.6137ZM23.3754 24.6916L25.6063 21.3715C24.438 20.5864 23.1612 20.3338 22.0619 20.3095L21.9734 24.3085L21.8848 28.3075C21.9326 28.3086 21.5905 28.3114 21.1444 28.0116L23.3754 24.6916ZM21.9734 24.3085L22.1219 20.3113C20.8325 20.2634 19.6025 20.5693 18.5283 20.9753L19.9426 24.7169L21.3569 28.4585C21.5815 28.3737 21.734 28.3337 21.8217 28.316C21.91 28.2983 21.9049 28.3087 21.8249 28.3058L21.9734 24.3085ZM19.9426 24.7169L18.5283 20.9753C17.3985 21.4023 16.3261 21.9869 15.3815 22.7755L17.9448 25.8462L20.5082 28.9169C20.6557 28.7938 20.9152 28.6255 21.3569 28.4585L19.9426 24.7169ZM17.9448 25.8462L15.3815 22.7755C14.5302 23.4861 13.7803 24.3273 13.2014 25.3153L16.6526 27.3374L20.1039 29.3595C20.1557 29.271 20.2673 29.118 20.5082 28.9169L17.9448 25.8462ZM16.6526 27.3374L13.1823 25.3482C12.6482 26.28 12.2676 27.3125 12.1185 28.4308L16.0834 28.9595L20.0483 29.4881C20.0471 29.4966 20.0468 29.4912 20.0546 29.4688C20.0628 29.4455 20.0819 29.3982 20.1229 29.3266L16.6526 27.3374ZM16.0834 28.9595L12.1148 28.4587C11.9748 29.5681 12.0713 30.7273 12.498 31.8563L16.2396 30.442L19.9813 29.0277C20.0194 29.1285 20.0408 29.2264 20.0498 29.3116C20.0586 29.3949 20.0535 29.4474 20.0519 29.4602L16.0834 28.9595ZM16.2396 30.442L12.498 31.8563C13.0498 33.3161 14.0705 34.6773 15.6895 35.4908L17.4855 31.9167L19.2816 28.3426C19.4881 28.4464 19.6691 28.5926 19.8046 28.7531C19.9332 28.9052 19.9778 29.0186 19.9813 29.0277L16.2396 30.442ZM17.4855 31.9167L15.6895 35.4908C17.0209 36.1599 18.4324 36.3477 19.769 36.2478L19.4707 32.2589L19.1725 28.27C19.079 28.277 19.0556 28.2687 19.0862 28.2739C19.1016 28.2766 19.1282 28.2823 19.1635 28.2937C19.1989 28.3052 19.2391 28.3213 19.2816 28.3426L17.4855 31.9167ZM19.4707 32.2589L19.7221 36.251C20.9432 36.1741 22.1353 35.8871 23.2825 35.4535L21.8682 31.7119L20.4539 27.9703C19.9248 28.1703 19.5187 28.248 19.2194 28.2668L19.4707 32.2589Z" fill="white" mask="url(#path-2-outside-1_0_1)"/>
</svg>
