<svg width="48" height="48" viewBox="0 0 48 48" fill="none" xmlns="http://www.w3.org/2000/svg">
<rect width="48" height="48" rx="5" fill="#8B0284"/>
<path d="M37.3242 16.3965C36.8457 16.377 36.3623 16.3525 35.874 16.3232C35.3857 16.2939 34.8633 16.2646 34.3066 16.2354C33.75 16.2061 33.1348 16.1816 32.4609 16.1621C31.7969 16.1426 31.0449 16.1328 30.2051 16.1328C29.1309 16.1328 28.0908 16.1621 27.085 16.2207C26.0791 16.2695 25.083 16.3672 24.0967 16.5137C23.1104 16.6602 22.124 16.8652 21.1377 17.1289C20.1514 17.3926 19.1406 17.7393 18.1055 18.1689C18.5254 19.3408 18.8623 20.4883 19.1162 21.6113C19.3701 22.7344 19.5654 23.8037 19.7021 24.8193C19.8486 25.835 19.9463 26.7871 19.9951 27.6758C20.0439 28.5645 20.0684 29.3652 20.0684 30.0781C20.0684 30.752 20.0537 31.3477 20.0244 31.8652C19.9951 32.373 19.9609 32.7979 19.9219 33.1396C19.8828 33.5498 19.834 33.9014 19.7754 34.1943C20.2441 33.0811 20.6982 31.9043 21.1377 30.6641C21.5869 29.4141 22.0117 28.1787 22.4121 26.958C22.8125 25.7275 23.1836 24.541 23.5254 23.3984C23.8672 22.2559 24.165 21.2305 24.4189 20.3223C24.6826 19.4141 24.8975 18.6572 25.0635 18.0518C25.2295 17.4365 25.3369 17.0459 25.3857 16.8799C25.6006 17.0557 25.8594 17.2803 26.1621 17.5537C26.4746 17.8271 26.7871 18.1104 27.0996 18.4033C27.4121 18.6963 27.7002 18.9795 27.9639 19.2529C28.2373 19.5166 28.4473 19.7363 28.5938 19.9121C28.3496 20.8203 28.0273 21.8213 27.627 22.915C27.2266 24.0088 26.7822 25.1367 26.2939 26.2988C25.8154 27.4609 25.3125 28.6279 24.7852 29.7998C24.2578 30.9619 23.7451 32.0654 23.2471 33.1104C22.749 34.1553 22.2852 35.1074 21.8555 35.9668C21.4355 36.8262 21.0889 37.5342 20.8154 38.0908C20.6689 37.9443 20.4883 37.7441 20.2734 37.4902C20.0586 37.2363 19.8389 36.9775 19.6143 36.7139C19.3896 36.46 19.1797 36.2207 18.9844 35.9961C18.7988 35.7715 18.6621 35.6104 18.5742 35.5127C18.5938 35.3955 18.6279 35.1953 18.6768 34.9121C18.7354 34.6191 18.7891 34.2578 18.8379 33.8281C18.8965 33.3887 18.9453 32.8809 18.9844 32.3047C19.0234 31.7285 19.043 31.0889 19.043 30.3857C19.043 29.585 19.0088 28.7256 18.9404 27.8076C18.8721 26.8799 18.7354 25.918 18.5303 24.9219C18.335 23.9258 18.0518 22.9004 17.6807 21.8457C17.3096 20.791 16.8262 19.7266 16.2305 18.6523C16.2207 18.6523 16.2158 18.6475 16.2158 18.6377C16.2061 18.6279 16.2012 18.6035 16.2012 18.5645C16.2012 18.4668 16.2354 18.335 16.3037 18.1689C16.3721 17.9932 16.46 17.8076 16.5674 17.6123C16.6846 17.4072 16.8066 17.207 16.9336 17.0117C17.0703 16.8066 17.1973 16.6309 17.3145 16.4844C17.3633 16.4258 17.5977 16.2891 18.0176 16.0742C18.4375 15.8496 19.0137 15.5859 19.7461 15.2832C20.4883 14.9805 21.3672 14.6582 22.3828 14.3164C23.4082 13.9746 24.541 13.6621 25.7812 13.3789C27.0215 13.0859 28.3545 12.8467 29.7803 12.6611C31.2158 12.4756 32.71 12.3828 34.2627 12.3828C34.3311 12.4609 34.4385 12.5928 34.585 12.7783C34.7412 12.9541 34.917 13.1641 35.1123 13.4082C35.3076 13.6426 35.5127 13.9014 35.7275 14.1846C35.9521 14.458 36.167 14.7314 36.3721 15.0049C36.5771 15.2686 36.7627 15.5225 36.9287 15.7666C37.0947 16.0107 37.2266 16.2207 37.3242 16.3965Z" fill="white"/>
</svg>
